<svg xmlns="http://www.w3.org/2000/svg" xmlns:xlink="http://www.w3.org/1999/xlink" viewBox="0 0 556 457.9">
  <defs>
    <clipPath id="clip-path" transform="translate(-27 -63.1)">
      <path d="M264.81,452.83c-24.24-13-46.33-16.5-84.67-1.46C186.45,490.47,272.67,500.51,264.81,452.83Z" style="fill: none"/>
    </clipPath>
    <linearGradient id="linear-gradient" x1="494.41" y1="120.54" x2="66.93" y2="492.52" gradientUnits="userSpaceOnUse">
      <stop offset="0.09" stop-color="#ffcc52"/>
      <stop offset="1" stop-color="#560048"/>
    </linearGradient>
  </defs>
  <title>16969 [Converted]</title>
  <g style="isolation: isolate">
    <g id="_1-2" data-name="1">
      <polygon points="537.08 0 509 352.9 66.39 376.54 12.9 77.32 537.08 0" style="fill: #8cf2c6"/>
      <polygon points="518.87 228.89 509 352.9 66.39 376.54 33.84 194.46 518.87 228.89" style="fill: #a4ffd6"/>
      <path d="M494,293.33l-80.19,4.83L430,290.6s2-18.6,11.33-12.93,8.42-19,18.54-6c0,0,24.68-11.44,20.12,5.67C480,277.33,467.33,291.33,494,293.33Z" transform="translate(-27 -63.1)" style="fill: #f4f9b2"/>
      <path d="M173.36,296.58,252,301.41l-15.88-7.56s-2-18.6-11.11-12.94-8.27-19-18.19-6c0,0-24.2-11.45-19.73,5.67C187.09,280.58,199.51,294.58,173.36,296.58Z" transform="translate(-27 -63.1)" style="fill: #d4ffe9"/>
      <path d="M94.36,222.58,147,224.41l-10.63-6.95s-1.31-18.53-7.44-12.52-5.53-18.69-12.17-5.31c0,0-16.2-10.52-13.21,6.43C103.55,206.06,111.87,219.58,94.36,222.58Z" transform="translate(-27 -63.1)" style="fill: #d4ffe9"/>
      <path d="M405,153.58l-60.64,1.83,12.25-6.95s1.51-18.53,8.56-12.52,6.38-18.69,14-5.31c0,0,18.66-10.52,15.21,6.43C394.41,137.06,384.83,150.58,405,153.58Z" transform="translate(-27 -63.1)" style="fill: #d4ffe9"/>
      <path d="M33.68,386.19l148.41,1.43-20.2-10.71s14.94-12.28,4.88-23.84-26.8,1.34-27.23,8.16,6.13-29.56-11.21-27.56c-12.37,1.42-9,18.67-9,18.67-15.07-29.91-15.19,5.39-19.19,6.06-5.34.89-2.7-30.57-18.47-23.4-19.73,9-5.34,40.67-5.34,40.67S61,362.84,54.73,371.52C49.77,378.35,46,386.53,33.68,386.19Z" transform="translate(-27 -63.1)" style="fill: #d4ffe9"/>
      <path d="M429.68,386.19l148.41,1.43-20.2-10.71s14.94-12.28,4.88-23.84-26.8,1.34-27.23,8.16,6.13-29.56-11.21-27.56c-12.37,1.42-9,18.67-9,18.67-15.07-29.91-15.19,5.39-19.19,6.06-5.34.89-2.7-30.57-18.47-23.4-19.73,9-5.34,40.67-5.34,40.67s-15.29-12.83-21.6-4.15C445.77,378.35,442,386.53,429.68,386.19Z" transform="translate(-27 -63.1)" style="fill: #f4f9b2"/>
      <g>
        <path d="M379,363.67s-13.6-70-1.78-90.77c0,0,11.83,2.19,11.83,6s.62-8.76-4.36-12.6,4.28-9.1,7.78-5c2.1-2.87-4-8.69-10.27-8.69s3.74-48.2,9.34-53.13,8.71-2.19,10.58-1.1c-2.65-6.5-8.72-8.21-11.83-7.12s-5-5.48.62-6.57c-7.07-3.29-16.18,0-18,2.19s-7.24-4.45-.47-7.12c-4.84.4-10.5-.62-14.47,4.93-1.4-3.7-6.07-6.37-13.53-4.11,5.13.62,7.23,3.7,4.66,6.37a23.72,23.72,0,0,0-19.13-1.17c7.46,1.17,13.76,8.36-15.56,9.32l-29.87,1.09-13.7,17.53S256.49,230.17,259,229.62s21.78,18.08,21.78,20.82,1.87,37.24,1.87,38.89,6.84,71.2,6.84,71.2,2.32,21.85,3.34,24.35,74.46,8,75.7,5.23S379,363.67,379,363.67Z" transform="translate(-27 -63.1)" style="fill: #64b590"/>
        <ellipse cx="295.54" cy="132.42" rx="9.57" ry="3.42" style="fill: #64b590"/>
        <path d="M314.25,196.87c.36-1.86-.17-3.29-4.11-3.89A15.27,15.27,0,0,0,300,194.7c6.44-.95,6.24,2.28,10.18,2.88S313.88,198.74,314.25,196.87Z" transform="translate(-27 -63.1)" style="fill: #64b590"/>
        <path d="M316.53,198.3c1.59-1.27,2.16-2.69-.52-5.29a14.51,14.51,0,0,0-9.21-4.14c5.75,2.73,3.33,5.18,6,7.78S314.94,199.57,316.53,198.3Z" transform="translate(-27 -63.1)" style="fill: #64b590"/>
        <path d="M372.17,246.74c.23-.62,17-23.83,22.17-14.79,0,0,1.86-7.6-14.94-7.39Z" transform="translate(-27 -63.1)" style="fill: #64b590"/>
        <path d="M376.49,237.08c.07-.49,8.54-20,13.91-13.93,0,0,.08-5.89-12.36-3.5Z" transform="translate(-27 -63.1)" style="fill: #64b590"/>
        <polygon points="356.14 140.78 353.93 156.11 347.42 155.29 353.33 138.86 356.14 140.78" style="fill: #8cf2c6"/>
        <path d="M367.58,280.56s-4.67,26.84-2.49,43c0,0-3.11-38.89-3.42-40.26S367.58,280.56,367.58,280.56Z" transform="translate(-27 -63.1)" style="fill: #8cf2c6;opacity: 0.30000000000000004"/>
        <polygon points="324 172.56 320.66 213.63 325.47 208.16 331.67 158.23 324 172.56" style="fill: #8cf2c6;opacity: 0.30000000000000004"/>
        <polygon points="294.8 148.51 298.46 152.16 299.85 186.08 298.03 182.92 294.8 148.51" style="fill: #8cf2c6;opacity: 0.30000000000000004"/>
        <polygon points="342.44 181.86 342.44 192.81 345.25 192.26 346.49 179.59 342.44 181.86" style="fill: #8cf2c6"/>
        <path d="M354.2,308.77s5.6,37.25,6.22,38.89-2.49,5.75-2.49,5.75l-9.33-40.8Z" transform="translate(-27 -63.1)" style="fill: #8cf2c6;opacity: 0.30000000000000004"/>
        <g>
          <path d="M320.14,395.47S306,272.3,330.52,207.85l2.59,1.76s-24.76,62.45-7.65,185.63Z" transform="translate(-27 -63.1)" style="fill: #5da582"/>
          <path d="M332.16,212.3S344.58,219,348,237.5c0,0,1-31.14-16.67-33.58Z" transform="translate(-27 -63.1)" style="fill: #5da582"/>
          <path d="M330.3,212.25s-14.91-4.59-24.81,8.82c0,0,7.77-28.73,26.47-15.94Z" transform="translate(-27 -63.1)" style="fill: #5da582"/>
          <path d="M333.09,210.71s-14.85,4.9-19.45,22.93c0,0-3.25-29.88,17.64-29.72Z" transform="translate(-27 -63.1)" style="fill: #5da582"/>
          <path d="M329.07,210.61s8.73,11.51,7.34,30.44c0,0,9.58-26.29-4.45-35.92Z" transform="translate(-27 -63.1)" style="fill: #5da582"/>
          <path d="M327.2,208.45s1.37,23.74,2,30.71c0,0,7.29-21.82,4.45-28S327.2,208.45,327.2,208.45Z" transform="translate(-27 -63.1)" style="fill: #5da582"/>
          <path d="M329.56,204s8.22-8.76,14.09.46c0,0-3-2.44-5.7,2.24Z" transform="translate(-27 -63.1)" style="fill: #5da582"/>
          <path d="M329,207.58s4.82-10.63-6.08-14.38c0,0-.73,10.91,1.88,14.7S329,207.58,329,207.58Z" transform="translate(-27 -63.1)" style="fill: #5da582"/>
        </g>
        <g>
          <path d="M252,412.73s17-123.17-12.5-187.61l-3.11,1.75s29.79,62.45,9.21,185.63Z" transform="translate(-27 -63.1)" style="fill: #5da582"/>
          <path d="M237.57,229.56a37.09,37.09,0,0,0-19,25.2s-1.22-31.14,20.06-33.58Z" transform="translate(-27 -63.1)" style="fill: #5da582"/>
          <path d="M239.81,229.51s17.94-4.59,29.86,8.82c0,0-9.35-28.73-31.86-15.94Z" transform="translate(-27 -63.1)" style="fill: #5da582"/>
          <path d="M236.45,228s17.88,4.91,23.41,22.93c0,0,3.91-29.88-21.23-29.72Z" transform="translate(-27 -63.1)" style="fill: #5da582"/>
          <path d="M241.29,227.87s-10.51,11.51-8.84,30.44c0,0-11.52-26.29,5.36-35.92Z" transform="translate(-27 -63.1)" style="fill: #5da582"/>
          <path d="M243.55,225.72s-1.66,23.73-2.46,30.71c0,0-8.78-21.83-5.36-28S243.55,225.72,243.55,225.72Z" transform="translate(-27 -63.1)" style="fill: #5da582"/>
          <path d="M240.7,221.24s-9.89-8.76-17,.46c0,0,3.64-2.44,6.87,2.24Z" transform="translate(-27 -63.1)" style="fill: #5da582"/>
          <path d="M241.42,224.84s-5.81-10.63,7.31-14.38c0,0,.88,10.92-2.27,14.7S241.42,224.84,241.42,224.84Z" transform="translate(-27 -63.1)" style="fill: #5da582"/>
        </g>
        <g>
          <path d="M258,379.2s17-123.17-12.49-187.62l-3.12,1.76s29.8,62.45,9.21,185.63Z" transform="translate(-27 -63.1)" style="fill: #5da582"/>
          <path d="M243.56,196a37.12,37.12,0,0,0-19,25.2s-1.21-31.14,20.06-33.58Z" transform="translate(-27 -63.1)" style="fill: #5da582"/>
          <path d="M245.8,196s17.94-4.59,29.85,8.81c0,0-9.35-28.72-31.86-15.93Z" transform="translate(-27 -63.1)" style="fill: #5da582"/>
          <path d="M242.44,194.44s17.87,4.9,23.4,22.93c0,0,3.91-29.88-21.23-29.72Z" transform="translate(-27 -63.1)" style="fill: #5da582"/>
          <path d="M247.28,194.33s-10.51,11.52-8.84,30.45c0,0-11.53-26.29,5.35-35.92Z" transform="translate(-27 -63.1)" style="fill: #5da582"/>
          <path d="M249.53,192.18s-1.66,23.74-2.46,30.71c0,0-8.77-21.83-5.35-28S249.53,192.18,249.53,192.18Z" transform="translate(-27 -63.1)" style="fill: #5da582"/>
          <path d="M246.68,187.71s-9.88-8.77-17,.46c0,0,3.63-2.44,6.86,2.24Z" transform="translate(-27 -63.1)" style="fill: #5da582"/>
          <path d="M247.4,191.31s-5.81-10.63,7.32-14.38c0,0,.87,10.91-2.27,14.7S247.4,191.31,247.4,191.31Z" transform="translate(-27 -63.1)" style="fill: #5da582"/>
        </g>
        <g>
          <path d="M329.81,422.87s15.24-104.64-11.17-159.39L315.85,265s26.65,53,8.24,157.7Z" transform="translate(-27 -63.1)" style="fill: #5da582"/>
          <path d="M316.88,267.26a32,32,0,0,0-17,21.4s-1.09-26.46,17.94-28.53Z" transform="translate(-27 -63.1)" style="fill: #5da582"/>
          <path d="M318.88,267.21s16.05-3.9,26.7,7.49c0,0-8.36-24.4-28.49-13.54Z" transform="translate(-27 -63.1)" style="fill: #5da582"/>
          <path d="M315.87,265.9s16,4.17,20.94,19.48c0,0,3.5-25.38-19-25.25Z" transform="translate(-27 -63.1)" style="fill: #5da582"/>
          <path d="M320.2,265.81a34.56,34.56,0,0,0-7.9,25.87s-10.31-22.33,4.79-30.52Z" transform="translate(-27 -63.1)" style="fill: #5da582"/>
          <path d="M322.22,264s-1.48,20.16-2.2,26.09c0,0-7.85-18.55-4.79-23.76S322.22,264,322.22,264Z" transform="translate(-27 -63.1)" style="fill: #5da582"/>
          <path d="M319.67,260.19s-8.84-7.45-15.16.39c0,0,3.25-2.07,6.14,1.9Z" transform="translate(-27 -63.1)" style="fill: #5da582"/>
          <path d="M320.31,263.24s-5.19-9,6.55-12.21c0,0,.78,9.27-2,12.49S320.31,263.24,320.31,263.24Z" transform="translate(-27 -63.1)" style="fill: #5da582"/>
        </g>
      </g>
      <g>
        <path d="M439,400s-4.48-171.26,53-253l4.54,3S439,229,449,401Z" transform="translate(-27 -63.1)" style="fill: #64b590"/>
        <path d="M494.27,153.46s22.06,12.21,25.06,38.21c0,0,7.47-42.18-25.2-49.84Z" transform="translate(-27 -63.1)" style="fill: #64b590"/>
        <path d="M490.79,152.94s-27.09-9.92-48,5.9c0,0,19.68-37.22,52.42-15.19Z" transform="translate(-27 -63.1)" style="fill: #64b590"/>
        <path d="M496.3,151.52s-28.69,3-40.52,26.45c0,0-.74-41.5,38.35-36.14Z" transform="translate(-27 -63.1)" style="fill: #64b590"/>
        <path d="M488.79,150.39a53.39,53.39,0,0,1,8.3,43.27s22.64-33.45-1.9-50Z" transform="translate(-27 -63.1)" style="fill: #64b590"/>
        <path d="M485.67,147S484,179.67,484,189.33c0,0,17.55-27.94,13.33-37S485.67,147,485.67,147Z" transform="translate(-27 -63.1)" style="fill: #64b590"/>
        <polygon points="453 88.56 447.67 106.23 468.33 95.23 453 88.56" style="fill: #64b590"/>
        <path d="M490.49,146.34s11.84-20.67,25.51-14c0,0-5.33,16.34-17,17.34S490.49,146.34,490.49,146.34Z" transform="translate(-27 -63.1)" style="fill: #64b590"/>
      </g>
      <g>
        <path d="M411,394.18s-22.5-142.4,16.5-216.9l4.12,2s-39.36,72.19-12.17,214.61Z" transform="translate(-27 -63.1)" style="fill: #64b590"/>
        <path d="M430.07,182.42s19.75,7.77,25.1,29.13c0,0,1.6-36-26.49-38.82Z" transform="translate(-27 -63.1)" style="fill: #64b590"/>
        <path d="M427.11,182.36s-23.69-5.3-39.42,10.19c0,0,12.34-33.21,42.07-18.42Z" transform="translate(-27 -63.1)" style="fill: #64b590"/>
        <path d="M431.55,180.58s-23.61,5.67-30.91,26.51c0,0-5.16-34.55,28-34.36Z" transform="translate(-27 -63.1)" style="fill: #64b590"/>
        <path d="M425.16,180.46a44.91,44.91,0,0,1,11.67,35.19s15.23-30.39-7.07-41.52Z" transform="translate(-27 -63.1)" style="fill: #64b590"/>
        <path d="M422.18,178s2.19,27.44,3.25,35.51c0,0,11.59-25.24,7.07-32.34S422.18,178,422.18,178Z" transform="translate(-27 -63.1)" style="fill: #64b590"/>
        <path d="M426,172.8s13.05-10.13,22.38.53c0,0-4.79-2.82-9.06,2.59Z" transform="translate(-27 -63.1)" style="fill: #64b590"/>
        <path d="M425,177s7.67-12.29-9.67-16.63c0,0-1.15,12.62,3,17S425,177,425,177Z" transform="translate(-27 -63.1)" style="fill: #64b590"/>
      </g>
      <g>
        <path d="M368.45,395s-9.45-117.5,27-175.81l3.23,1.91s-36.59,56.4-23.32,174.22Z" transform="translate(-27 -63.1)" style="fill: #64b590"/>
        <path d="M397.25,223.51s15.62,7.57,18.65,25.32c0,0,3.55-29.25-19.18-33.3Z" transform="translate(-27 -63.1)" style="fill: #64b590"/>
        <path d="M394.84,223.28s-19-5.8-32.78,5.85c0,0,12.14-26.31,35.46-12.39Z" transform="translate(-27 -63.1)" style="fill: #64b590"/>
        <path d="M398.57,222.11s-19.6,3.14-26.85,19.68c0,0-2.05-28.49,25-26.26Z" transform="translate(-27 -63.1)" style="fill: #64b590"/>
        <path d="M393.37,221.61A36.71,36.71,0,0,1,400.69,251s14.31-23.82-3.17-34.29Z" transform="translate(-27 -63.1)" style="fill: #64b590"/>
        <path d="M391.1,219.39s.07,22.51.43,29.15c0,0,11-19.85,7.79-25.91S391.1,219.39,391.1,219.39Z" transform="translate(-27 -63.1)" style="fill: #64b590"/>
        <path d="M394.49,215.41s11.28-7.44,18.22,1.84c0,0-3.74-2.6-7.55,1.54Z" transform="translate(-27 -63.1)" style="fill: #64b590"/>
        <path d="M393.46,218.75s7-9.55-6.84-14.16c0,0-1.73,10.21,1.38,14S393.46,218.75,393.46,218.75Z" transform="translate(-27 -63.1)" style="fill: #64b590"/>
      </g>
      <g>
        <path d="M338.83,384.41s-12.69-145.12,22.32-221.34l3.3,2.05s-35.21,73.86-18.68,219Z" transform="translate(-27 -63.1)" style="fill: #5da582"/>
        <path d="M363.08,168.3s15.88,7.81,19.4,29.57c0,0,2.78-36.73-20.15-39.45Z" transform="translate(-27 -63.1)" style="fill: #5da582"/>
        <path d="M360.65,168.26s-19.21-5.28-32.74,10.62c0,0,11.47-33.94,35.25-19Z" transform="translate(-27 -63.1)" style="fill: #5da582"/>
        <path d="M364.37,166.42s-19.59,5.91-26.43,27.21c0,0-2.83-35.21,24.39-35.21Z" transform="translate(-27 -63.1)" style="fill: #5da582"/>
        <path d="M359.13,166.33s10.85,13.5,8.15,35.83c0,0,13.72-31.08-4.12-42.31Z" transform="translate(-27 -63.1)" style="fill: #5da582"/>
        <path d="M356.79,163.81s.68,28,1.23,36.2c0,0,10.52-25.81,7.11-33S356.79,163.81,356.79,163.81Z" transform="translate(-27 -63.1)" style="fill: #5da582"/>
        <path d="M360.09,158.51s11.11-10.41,18.34.42c0,0-3.82-2.85-7.54,2.69Z" transform="translate(-27 -63.1)" style="fill: #5da582"/>
        <path d="M359.14,162.76s6.79-12.58-7.25-16.9c0,0-1.46,12.88,1.77,17.32S359.14,162.76,359.14,162.76Z" transform="translate(-27 -63.1)" style="fill: #5da582"/>
      </g>
      <g>
        <path d="M374.17,367.37s-20.42-76.42-3.4-119.31l2.36.87s-17.34,41.65,5.64,117.82Z" transform="translate(-27 -63.1)" style="fill: #5da582"/>
        <path d="M372.48,250.72s11.22,3.11,15.37,14.46c0,0-1.19-19.74-16.68-19.67Z" transform="translate(-27 -63.1)" style="fill: #5da582"/>
        <path d="M370.87,250.86s-13.24-1.54-20.94,7.81c0,0,4.84-18.83,21.91-12.46Z" transform="translate(-27 -63.1)" style="fill: #5da582"/>
        <path d="M373.19,249.63s-12.56,4.44-15.36,16.23c0,0-4.79-18.55,13.34-20.35Z" transform="translate(-27 -63.1)" style="fill: #5da582"/>
        <path d="M369.69,249.93a24.65,24.65,0,0,1,8.39,18.54s6.57-17.46-6.24-22.26Z" transform="translate(-27 -63.1)" style="fill: #5da582"/>
        <path d="M367.93,248.74s2.76,14.85,3.8,19.19c0,0,4.88-14.43,2-18.05S367.93,248.74,367.93,248.74Z" transform="translate(-27 -63.1)" style="fill: #5da582"/>
        <path d="M369.68,245.7s6.55-6.27,12.25-1c0,0-2.78-1.27-4.8,1.93Z" transform="translate(-27 -63.1)" style="fill: #5da582"/>
        <path d="M369.4,248s3.49-7.15-6.22-8.52c0,0,.09,7,2.61,9.1S369.4,248,369.4,248Z" transform="translate(-27 -63.1)" style="fill: #5da582"/>
      </g>
      <g>
        <path d="M242.74,365.69s-12.08-117.7-52.82-167l-2.4,2.59S228.06,248.68,237,367.53Z" transform="translate(-27 -63.1)" style="fill: #64b590"/>
        <path d="M189.15,203.35a40.24,40.24,0,0,0-11.43,29s-8-28,10.51-37Z" transform="translate(-27 -63.1)" style="fill: #64b590"/>
        <path d="M191.14,202.59s15-9.9,28.69-1.48c0,0-14.75-23.2-32.06-4.37Z" transform="translate(-27 -63.1)" style="fill: #64b590"/>
        <path d="M187.79,202.26s17.09-1.23,26,13.44c0,0-3.13-28.49-25.6-20.33Z" transform="translate(-27 -63.1)" style="fill: #64b590"/>
        <path d="M192.1,200.62a42.84,42.84,0,0,0-1.16,30.56s-16.15-20.28-3.17-34.44Z" transform="translate(-27 -63.1)" style="fill: #64b590"/>
        <path d="M193.64,197.94s3.78,22.16,4.61,28.78c0,0-12.7-17.1-11-23.79S193.64,197.94,193.64,197.94Z" transform="translate(-27 -63.1)" style="fill: #64b590"/>
        <path d="M190.31,194.71s-13.31-10-21.64,9.62l23-6.53Z" transform="translate(-27 -63.1)" style="fill: #64b590"/>
      </g>
      <g>
        <path d="M261,332.08s-9.08-135.4-42.26-192.51l-2,3s33,54.92,39.49,191.61Z" transform="translate(-27 -63.1)" style="fill: #64b590"/>
        <path d="M218.06,144.94s-9.88,12.39-9.62,33.24c0,0-6.38-32.26,8.93-42.42Z" transform="translate(-27 -63.1)" style="fill: #64b590"/>
        <path d="M219.71,144.09s12.46-11.23,23.63-1.41c0,0-12-26.82-26.37-5.35Z" transform="translate(-27 -63.1)" style="fill: #64b590"/>
        <path d="M217,143.67s14.09-1.24,21.35,15.71c0,0-2.37-32.77-20.93-23.62Z" transform="translate(-27 -63.1)" style="fill: #64b590"/>
        <path d="M220.51,141.83A67.29,67.29,0,0,0,219.33,177s-13.15-23.48-2.36-39.62Z" transform="translate(-27 -63.1)" style="fill: #64b590"/>
        <path d="M221.8,138.77s2.95,25.51,3.59,33.12c0,0-10.33-19.79-8.89-27.45S221.8,138.77,221.8,138.77Z" transform="translate(-27 -63.1)" style="fill: #64b590"/>
      </g>
      <polygon points="556 313.9 420.93 309.33 0 320.9 73.67 381.68 334.93 331.55 538 363.9 556 313.9" style="fill: #65c1a2"/>
      <polygon points="325.53 311.95 0 320.9 81.33 363.9 334.93 331.55 325.53 311.95" style="fill: #5daf91"/>
      <path d="M568,418.67c5-44-477-64.35-477,11.33,0,28.44,73.35,87,207,87S568,447.11,568,418.67Z" transform="translate(-27 -63.1)" style="fill: #94eacb"/>
      <path d="M496.53,408S485.8,361,499,328.34c0,0-12.37,11.15-15.67,43,0,0,.82-37.44-13.2-62.94,0,0,5.77,28.68,1.65,49.39,0,0-33.82-26.28-6.6-68.5,0,0-28.05,27.88-15.67,62.13,0,0-19.8-30.27-7.43-51.78a41.24,41.24,0,0,0-9.9,28.68s-2.47-30.27-17.32-37.44c0,0,14,31.86,5.78,51.78,0,0-4.13-34.26-19-43.82,0,0,10.73,18.33,6.6,27.89S388.47,290.1,403.31,267c0,0-22.27,17.53-10.72,62.93,0,0-14-9.56-11.55-22.3,0,0-10.72,15.93,7.43,46.2,0,0-20.63-33.46-29.7-34.25,0,0,22.27,30.27,9.9,42.22,0,0-44.55-37.44-7.43-89.22,0,0-36.66,24.28-17.32,67.71,0,0-9.9-23.9-23.92-36.65,0,0,24.75,68.51,14.85,91.61Z" transform="translate(-27 -63.1)" style="fill: #b0ba2a"/>
      <path d="M566.81,425.48c0-28.44-153.34-38.67-287-38.67s-184,17.56-184,46S163.35,521,297,521,566.81,453.92,566.81,425.48Z" transform="translate(-27 -63.1)" style="fill: #efd13c"/>
      <path d="M569,389.67,523.67,386S556.67,383.33,569,389.67Z" transform="translate(-27 -63.1)" style="fill: #94eacb"/>
      <path d="M130.79,390l-45.27,4.47S117.52,386,130.79,390Z" transform="translate(-27 -63.1)" style="fill: #94eacb"/>
    </g>
    <g id="_2" data-name="2">
      <path d="M426.26,435.7c53-8,95.67-18.68,114.18-28.22-24.11-8.81-93.3-16.46-175-21.09-1.21-6.36-42.2-9.16-43-1.87-100.66-3-208.76,4.48-224.86,39.4,35,15.37,81.86,21.86,134.56,23.85.09.89.17,1.77.27,2.63.45.51.92,1,1.41,1.48s.76.73,1.15,1.08c-15.43-4.84-31.61-4.5-57.79,5a142.72,142.72,0,0,0,.91,15.92c.46.5.92,1,1.41,1.48a52.09,52.09,0,0,0,16,10.5c16.63,7.23,37.38,7.77,49.57-.48,2.46-1.67,12.85-7.52,14.51-9.92.23-4.89-5.25-7.73-8.06-12.43,32.38,13,74.81-8.37,60.63-16,9.34-.46,18.65-1,27.88-1.73,28.21,29.06,59,26.17,94.8,20.24l12.32-11.48L429.82,448C416.57,442.16,420.86,438.46,426.26,435.7Z" transform="translate(-27 -63.1)" style="fill: #6b4e00;opacity: 0.4;mix-blend-mode: multiply"/>
      <g>
        <path d="M276.91,237.52s1.33-52.88-37.28-76.88C254.46,188.61,257.09,236.74,276.91,237.52Z" transform="translate(-27 -63.1)" style="fill: #727221"/>
        <path d="M264.89,239.76c-18,3.82-18-11.62-37.1-5.45,0,0,20.54-18.38,40.09-2.14C267.88,232.17,266.7,239.38,264.89,239.76Z" transform="translate(-27 -63.1)" style="fill: #727221"/>
        <path d="M340.78,357.91c0-6.1-2.22-8.74.91-13.9,2.56-3.44.13-14.31.34-19.91a22.27,22.27,0,0,0-5.1-14.45,25.22,25.22,0,0,0,2.15-13.48,22.21,22.21,0,0,0-7-13.45c2.47-4.53,3-12.17-.49-19.58-3.72-8-12.45-12.12-18.5-12.44A49.36,49.36,0,0,0,251.47,249c-5.3-.47-13.17,3.42-17.94,11.37-3.15,5.26-2.85,9.7-1.66,14.77,0,.07-1.58,4.62-2,5.93-4.54,2.09-9.34,7.07-11.62,14.14s-.11,14.45,3.12,19.25c-4.49,2.62-8.88,9.14-9.52,17.49-.57,7.35,3.25,14.11,7.52,18,0,.59,0,1.17.05,1.74-3.25,3.94-5.31,11-3.7,18.78,1.84,8.89,9.84,15.08,15.72,16.55,18.47,16.58,57.55,20.59,82.57,9.25,5.13,1.51,13.86-1.3,19.82-8.88,4.1-5.22,5-12,4.1-17.42C341.21,366.61,340.83,367,340.78,357.91Z" transform="translate(-27 -63.1)" style="fill: #825023"/>
        <path d="M240.51,301.28c1.61-9.28-4.86-14.06-10.22-21.45-6.14,2.09-11.66,8.08-13.27,17.37s1.83,18,7.85,20.95C229.91,315.77,238.9,310.56,240.51,301.28Z" transform="translate(-27 -63.1)" style="fill: #ad7136"/>
        <path d="M240.21,368.15c-1.42-9.5-7.6-12.69-15.06-18.36-5.19,3.8-12,9.15-10.54,18.65s11.82,18.93,18.49,20.07A23,23,0,0,0,240.21,368.15Z" transform="translate(-27 -63.1)" style="fill: #ad7136"/>
        <path d="M274.43,305.22c.58-11.8-12.6-15.9-16-26.27-8.48,3.28-17.64,12.8-18.22,24.6s6.21,20.74,16.08,25.25C264.3,324.19,273.86,317,274.43,305.22Z" transform="translate(-27 -63.1)" style="fill: #ad7136"/>
        <path d="M294.88,341c-1.39-12.06-12.44-21.54-21-23.9-8.24,4.76-16.14,16-14.75,28S269,365.06,280,368C287.57,361.93,296.27,353,294.88,341Z" transform="translate(-27 -63.1)" style="fill: #ad7136"/>
        <path d="M275.66,377c-1.16-10.13-11.57-18-19.71-19.84-7.91,4.11-15.59,13.64-14.42,23.76s9.2,16.68,19.62,19C268.42,394.76,276.83,387.17,275.66,377Z" transform="translate(-27 -63.1)" style="fill: #ad7136"/>
        <path d="M307.67,301.92c-.5-9.41-10.85-15.82-17.71-18.2-5.32,2.52-14.92,11.3-14.41,20.71s8.93,17.09,17.35,20.3C299.62,320.39,308.17,311.33,307.67,301.92Z" transform="translate(-27 -63.1)" style="fill: #ad7136"/>
        <path d="M329,334.13c-1.78-12.4-13.15-20.1-20.44-22.73-5.07,3.72-13.64,16.05-11.86,28.45s11.38,21.9,20.38,25.53C323.34,359.14,330.8,346.52,329,334.13Z" transform="translate(-27 -63.1)" style="fill: #ad7136"/>
        <path d="M280.85,377.6c-.17,9.42,9.7,16.55,16.37,19.41,5.49-2.13,15.69-10.22,15.86-19.64s-7.69-17.67-15.87-21.48C290.2,359.74,281,368.18,280.85,377.6Z" transform="translate(-27 -63.1)" style="fill: #ad7136"/>
        <path d="M315.47,264.5c-2.5-10.86-10.94-13.84-17.59-16.05-4.25,5.39-11,12.14-8.51,23s12,14.76,18.79,19.41C312.42,284.68,318,275.37,315.47,264.5Z" transform="translate(-27 -63.1)" style="fill: #ad7136"/>
        <path d="M224.94,339.49c2,12.29,11.5,17.95,19,22.27,5.4-4.47,13.84-9.64,11.87-21.93s-12.6-19.23-20.12-26.19C230.23,318.94,223,327.19,224.94,339.49Z" transform="translate(-27 -63.1)" style="fill: #ad7136"/>
        <path d="M287.6,270.4c.3-11.34-7.4-16.42-13.49-20.29-5.66,4.21-14.21,9.13-14.51,20.46s8.18,17.58,13.83,23.9C279.31,289.48,287.3,281.73,287.6,270.4Z" transform="translate(-27 -63.1)" style="fill: #ad7136"/>
        <path d="M257.49,269.16c.24-9.42-6.27-15.83-12.16-19.07-6.18,2-15.49,8.35-15.74,17.77s7,15.54,12.45,20.81C247.69,284.54,257.24,278.58,257.49,269.16Z" transform="translate(-27 -63.1)" style="fill: #ad7136"/>
        <path d="M331.56,263.14c-4.55-8.25-14-14.56-20.18-12.6.14,3.08,2.17,7.43,6.72,15.68,5.46,6.16,7.84,9,14.79,14.63C335.32,278.12,334.52,271.05,331.56,263.14Z" transform="translate(-27 -63.1)" style="fill: #ad7136"/>
        <path d="M339.66,296c-1.54-9.7-9-15.68-16.52-19.32-5.18,7-13.58,16.06-12,25.76s10.4,15.57,17.36,16.93C334.34,314.65,341.21,305.73,339.66,296Z" transform="translate(-27 -63.1)" style="fill: #ad7136"/>
        <path d="M346.13,375.31c1.3-9.72-3.4-22.68-9.39-28.31-6.78,5.25-17.63,16.68-18.93,26.41s1.21,17.93,7.29,21.2C333.22,394.59,344.83,385,346.13,375.31Z" transform="translate(-27 -63.1)" style="fill: #ad7136"/>
        <path d="M338.66,312.12c-5.67,5.92-10.16,11.05-9.18,19.39s4.1,15.35,11.08,16.63C348,338,350.49,324.28,338.66,312.12Z" transform="translate(-27 -63.1)" style="fill: #ad7136"/>
        <path d="M219.18,316.09c4,4.92,4.47,11.38,4,18.86s1,15.23-3.79,16.8C211.13,343.57,206.25,326.69,219.18,316.09Z" transform="translate(-27 -63.1)" style="fill: #ad7136"/>
        <path d="M328.19,334.16c-10.23-5.09-13-14.05-18.63-20.77,1.77,12-3.41,20.74-10.5,25.9,11.61,3.19,15.64,15.35,18.06,24.36C319.49,354.31,317.76,342.92,328.19,334.16Z" transform="translate(-27 -63.1)" style="fill: #c68147"/>
        <path d="M323.44,335.34c-5.52-1.94-7.16-5.93-9.17-10.19.93,6.25-1.61,10.06-5.31,12.75,6.05,1.67,7.87,6.75,9.13,11.45C319.33,344.48,317,339,323.44,335.34Z" transform="translate(-27 -63.1)" style="fill: #e2a849"/>
        <path d="M289.26,340c-8.34-4.15-11.18-13-15.11-20.16-.88,10-5.14,18.19-10.92,22.4,9.47,2.61,12,16.24,15.67,22.4C278.9,357.07,280.76,347.14,289.26,340Z" transform="translate(-27 -63.1)" style="fill: #c68147"/>
        <path d="M282.82,340.83c-4.5-1.58-6.47-9.12-8.11-12.6.75,5.11-3.15,11.25-6.16,13.44,4.94,1.36,8.2,10.44,9.23,14.28C278.79,352,277.58,343.84,282.82,340.83Z" transform="translate(-27 -63.1)" style="fill: #e2a849"/>
        <path d="M304.29,302.25c-7.58-4-8.93-10-12.71-14.77.25,7.89-4.67,13.19-10.75,16,8.86,2.89,10.87,11,11.93,17.05C295.51,314.68,295.24,307.18,304.29,302.25Z" transform="translate(-27 -63.1)" style="fill: #c68147"/>
        <path d="M300.44,302.68c-4.17-1.65-5.08-4.36-6.26-7.25.13,4.11-2.24,6.4-5.41,7.88,4.62,1.51,5.57,4.92,6.12,8.06C296.32,308.3,295,304.6,300.44,302.68Z" transform="translate(-27 -63.1)" style="fill: #e2a849"/>
        <path d="M241.6,302c7.81-4.67,9.26-11.65,13.17-17.17-.34,9.18,4.65,15.36,10.85,18.67-9.1,3.35-11.25,12.84-12.39,19.84C250.47,316.44,250.82,307.71,241.6,302Z" transform="translate(-27 -63.1)" style="fill: #c68147"/>
        <path d="M245.54,302.46c4.29-1.91,5.25-5,6.49-8.42-.18,4.78,2.23,7.45,5.46,9.18-4.75,1.75-5.75,5.72-6.35,9.37C249.7,309,251.08,304.72,245.54,302.46Z" transform="translate(-27 -63.1)" style="fill: #e2a849"/>
        <path d="M310.12,374.76c-7.72-4-9.28-10-13.22-14.77.52,7.89-4.22,13.19-10.21,16,9,2.89,11.25,11.05,12.51,17.06C301.75,387.2,301.23,379.7,310.12,374.76Z" transform="translate(-27 -63.1)" style="fill: #c68147"/>
        <path d="M307.49,375.06c-5.11-1.92-6.32-5.07-7.86-8.45.32,4.8-2.45,7.47-6.22,9.21,5.64,1.75,5.7,7.55,6.49,11.21C301.52,383.45,301,377.32,307.49,375.06Z" transform="translate(-27 -63.1)" style="fill: #e2a849"/>
        <path d="M245,377.75c7.19-5.3,8.15-11.88,11.57-17.44.23,8.43,5.37,13.4,11.5,15.6-8.51,4.28-10,13.23-10.67,19.77C254.32,389.79,254.14,381.77,245,377.75Z" transform="translate(-27 -63.1)" style="fill: #c68147"/>
        <path d="M247.57,377.71c4.83-2.73,5.72-6.23,6.91-10,.13,5.13,3.09,7.59,7,8.91-5.36,2.63-4.88,8.78-5.32,12.77C254.2,385.79,254.13,379.23,247.57,377.71Z" transform="translate(-27 -63.1)" style="fill: #e2a849"/>
        <path d="M314,264.53c-7.53-2.5-9.8-8.29-14-12.31,1.62,7.93-1.88,14.31-6.85,18.44,8.48,1.09,11.73,8.92,13.73,14.78C308.3,278.92,306.73,271.39,314,264.53Z" transform="translate(-27 -63.1)" style="fill: #c68147"/>
        <path d="M310.62,265.76c-4.05-.81-5.34-3.35-6.91-6,.84,4.14-.89,6.94-3.48,9.09,4.42.57,5.87,3.83,6.92,6.89C307.9,272.3,306.08,268.83,310.62,265.76Z" transform="translate(-27 -63.1)" style="fill: #e2a849"/>
        <path d="M263.47,269.75c6.39-3.76,7.62-9.85,10.85-14.53a18.58,18.58,0,0,0,8.7,17c-7.43,2.53-9.25,10.79-10.22,16.91C270.59,282.93,271,275.25,263.47,269.75Z" transform="translate(-27 -63.1)" style="fill: #c68147"/>
        <path d="M267.88,269.53c3.51-1.49,4.31-4.22,5.35-7.13a8.76,8.76,0,0,0,4.38,8.35c-3.88,1.32-4.73,4.78-5.24,8C271.23,275.5,272.38,271.77,267.88,269.53Z" transform="translate(-27 -63.1)" style="fill: #e2a849"/>
        <path d="M337.67,297c-3.33-4.88-7.93-10.05-11.28-14.81a16.87,16.87,0,0,1-9.44,16c7.83,2.91,9.64,11.08,10.59,17.09C330,309.41,334.9,302.2,337.67,297Z" transform="translate(-27 -63.1)" style="fill: #c68147"/>
        <path d="M336.76,297.2c-3.69-1.66-5.84-6-6.89-8.87.13,4.11-.61,8-3.41,9.46,4.08,1.53,2,8.28,2.51,11.41C330.23,306.14,332,299.11,336.76,297.2Z" transform="translate(-27 -63.1)" style="fill: #e2a849"/>
        <path d="M216.15,296.16c3-3.8,7-7.72,10-11.41-1.06,6.61,1.59,11.46,5.28,14.33-6.17,1.73-8.42,8.42-9.79,13.39C220.54,307.31,217.64,300.78,216.15,296.16Z" transform="translate(-27 -63.1)" style="fill: #c68147"/>
        <path d="M216.8,296.41c2.94-1.06,5-4.48,6.13-6.82-.55,3.45-.43,6.78,1.49,8.28-3.21.9-2.41,6.77-3.13,9.36C220.69,304.53,220.16,298.46,216.8,296.41Z" transform="translate(-27 -63.1)" style="fill: #e2a849"/>
        <path d="M346.44,330c-2.05-3.79-4.88-7.79-6.94-11.48.18,6.09-2.43,10.15-5.69,12.3,4.79,2.29,5.93,8.6,6.53,13.24C341.79,339.53,344.77,334,346.44,330Z" transform="translate(-27 -63.1)" style="fill: #c68147"/>
        <path d="M345.89,330.14c-2.26-1.3-3.59-4.63-4.25-6.88.1,3.18-.33,6.17-2,7.29,2.5,1.19,1.26,6.39,1.58,8.82C341.94,337,343,331.59,345.89,330.14Z" transform="translate(-27 -63.1)" style="fill: #e2a849"/>
        <path d="M218.15,370.29c1.31-5.34,3.44-11.16,4.79-16.38,1.46,7.81,5.56,12.31,9.88,14.23-4.85,4.12-4.42,12.44-3.84,18.51C226.09,381.26,221.15,375,218.15,370.29Z" transform="translate(-27 -63.1)" style="fill: #c68147"/>
        <path d="M218.82,370.34c2.23-2.23,2.84-6.81,3-9.83.76,4.06,2.08,7.77,4.33,8.77-2.53,2.15.31,8.46.61,11.62C225.22,378.09,222.55,371.45,218.82,370.34Z" transform="translate(-27 -63.1)" style="fill: #e2a849"/>
        <path d="M233.81,265.71c3.1-4.85,7.27-9.91,10.39-14.63-.81,8.09,2.34,13.73,6.53,16.89-6.66,2.6-8.76,10.88-10,17C239.19,278.82,235.68,271.17,233.81,265.71Z" transform="translate(-27 -63.1)" style="fill: #c68147"/>
        <path d="M234.54,266c3.15-1.52,5.25-5.83,6.34-8.75-.42,4.22-.12,8.24,2.07,9.89-3.47,1.35-2.29,8.38-2.93,11.57C239.22,275.46,238.32,268.16,234.54,266Z" transform="translate(-27 -63.1)" style="fill: #e2a849"/>
        <path d="M225.89,337.24c2.86-6,7-12.43,9.91-18.27.67,9.09,5.75,14.68,11.61,17.32-7.74,4.22-8.65,13.8-8.93,20.81C235.3,350.62,229.35,342.89,225.89,337.24Z" transform="translate(-27 -63.1)" style="fill: #c68147"/>
        <path d="M226.85,337.36c3.61-2.32,5.33-7.51,6.08-11,.35,4.74,1.56,9.12,4.62,10.5-4,2.2-1.11,9.72-1.26,13.38C234.64,346.9,232,339,226.85,337.36Z" transform="translate(-27 -63.1)" style="fill: #e2a849"/>
        <path d="M319.91,251.79c3.3,5.13,2.85,9.48,1.17,13,5.28-.5,10.13,4.35,13,8C331.19,255.19,328.67,256.35,319.91,251.79Z" transform="translate(-27 -63.1)" style="fill: #c68147"/>
        <path d="M324.3,254a9.74,9.74,0,0,1,.8,8.35c2.76-.27,6.75,4.45,8.27,6.36C332.23,258.57,331.82,257.61,324.3,254Z" transform="translate(-27 -63.1)" style="fill: #e2a849"/>
        <path d="M214.76,320.8c.22,6.08,3.08,9.41,6.5,11.34-4.66,2.6-5.88,9.35-6.18,14C207.39,330,210.13,329.54,214.76,320.8Z" transform="translate(-27 -63.1)" style="fill: #c68147"/>
        <path d="M212.37,325.08a9.69,9.69,0,0,0,4.13,7.3c-2.43,1.36-3,7.51-3.18,9.95C208.47,333.39,208.25,332.37,212.37,325.08Z" transform="translate(-27 -63.1)" style="fill: #e2a849"/>
        <path d="M343.36,372.55c-1.7-5.42-4.47-16.34-6.22-21.64-1.28,7.94-8.12,20-12.88,22,5.63,4.16,5.7,13,5.32,19.18C334.06,389,340.21,377.31,343.36,372.55Z" transform="translate(-27 -63.1)" style="fill: #c68147"/>
        <path d="M342.61,372.6c-2.6-2.24-2.71-12.24-4.91-14.69-.42,8.47-4.45,13.53-6.93,14.56,5.92.14,2.09,11.62,1.89,14.84C334.23,384.44,338.48,373.76,342.61,372.6Z" transform="translate(-27 -63.1)" style="fill: #e2a849"/>
        <path d="M265.36,278.88s23-12.21,20.47-26.1c18.57,13,28.72-1.82,47,13.62a26.21,26.21,0,0,0-1.25-3.26c-3.72-8-12.45-12.12-18.5-12.44a49.47,49.47,0,0,0-30.33-11.61,49.06,49.06,0,0,0-1.07,5.82c-2.79-3-8.15-6.62-16.21-3.08l-.29,0A50.24,50.24,0,0,0,251.47,249c-5.3-.47-13.17,3.42-17.94,11.37a17.67,17.67,0,0,0-2,4.63c9-3.78,17-.68,26.5-4.94C258.38,265.43,260.29,271.8,265.36,278.88Z" transform="translate(-27 -63.1)" style="fill: #6b4e00;opacity: 0.4;mix-blend-mode: multiply"/>
        <path d="M266.31,333c16.41-39.83,26.39-78.72,45.18-83.5a49.31,49.31,0,0,0-60-.45,13.88,13.88,0,0,0-6.14,1.06h0c-6.18,2-15.49,8.35-15.74,17.77a17.68,17.68,0,0,0,1.91,8.4c-.34,1-.83,2.44-1.22,3.57-6.14,2.1-11.65,8.09-13.26,17.37-1.21,6.92.41,13.53,3.8,17.67a15,15,0,0,0-1.63,1.24v0c-12.93,10.6-8.05,27.48.22,35.66a19.39,19.39,0,0,0-3.72,8.24,14.93,14.93,0,0,0-1.07,8.45c1.43,9.5,11.82,18.93,18.49,20.07h0c9.59,7.72,23.83,12.43,38.71,13.82C260.31,386.16,254.29,362.13,266.31,333Z" transform="translate(-27 -63.1)" style="fill: #7a2300;opacity: 0.30000000000000004;mix-blend-mode: multiply"/>
        <path d="M268.17,251.06c-24.07,10.53-29.37-10.87-54.22,3.26-2.52-3.64,24.24-31.74,56.21-14.71C270.16,239.61,270.59,250,268.17,251.06Z" transform="translate(-27 -63.1)" style="fill: #727221"/>
        <path d="M268.17,247.7c-24.07,10.53-27.69-10.73-52.54,3.4,0,0,22.56-31.88,54.53-14.85C270.16,236.25,270.59,246.64,268.17,247.7Z" transform="translate(-27 -63.1)" style="fill: #8f9126"/>
        <path d="M268.41,244c-19.17,8.39-17.64-8.4-38.22-1.82,0,0,14.51-19.45,40-5.89C270.16,236.25,270.33,243.12,268.41,244Z" transform="translate(-27 -63.1)" style="fill: #ad9d2b"/>
        <path d="M283.56,248.89c24.82,16.12,32.09-6.19,57.78,8,0,0-24.73-36.76-59.71-20.74C281.63,236.12,281,247.52,283.56,248.89Z" transform="translate(-27 -63.1)" style="fill: #727221"/>
        <path d="M284.68,246.65c25.9,13.66,30-7.46,56.66,10.21,0,0-23.61-39-58.59-23C282.75,233.88,282.09,245.28,284.68,246.65Z" transform="translate(-27 -63.1)" style="fill: #8f9126"/>
        <path d="M270.44,238.77c-17.65-.89-11.52-14.1-38.73-33.85,0,0,37.21-1.56,44.22,31.88C275.93,236.8,272.65,239.21,270.44,238.77Z" transform="translate(-27 -63.1)" style="fill: #8f9126"/>
        <path d="M270.44,238.77c-17.65-.89-11.52-14.1-38.73-33.85,22.84,11.53,38.8,13.84,44.22,31.88C275.93,236.8,272.65,239.21,270.44,238.77Z" transform="translate(-27 -63.1)" style="fill: #727221"/>
        <path d="M231.79,204.92c16.83,6.93,19.65,15,32,10.68C250.83,204.54,233,204.89,231.79,204.92Z" transform="translate(-27 -63.1)" style="fill: #ad9d2b"/>
        <path d="M276.07,233.5s27-35.25,57.44-23.66C312,215.47,303.7,248.55,276.07,233.5Z" transform="translate(-27 -63.1)" style="fill: #8f9126"/>
        <path d="M280.09,232.59s18.51-33.25,53.42-22.75C310,211.2,300.54,241.67,280.09,232.59Z" transform="translate(-27 -63.1)" style="fill: #ad9d2b"/>
        <path d="M289.43,230.94s-.7-64.81-38.15-126.67C266.36,151.4,270.64,213.55,289.43,230.94Z" transform="translate(-27 -63.1)" style="fill: #727221"/>
        <path d="M279,231.6s-25.41-73.24,3-158.15C279.63,132.65,298.84,204.37,279,231.6Z" transform="translate(-27 -63.1)" style="fill: #8f9126"/>
        <path d="M279,231.6s-8.08-71.43,3-158.15C279.63,132.65,298.84,204.37,279,231.6Z" transform="translate(-27 -63.1)" style="fill: #ad9d2b"/>
        <path d="M279,231.6s-15.35-44.25-8.84-103.84c1.86-17.07,9.57,59.36,17.84,55.72C288.5,204,286.66,221.09,279,231.6Z" transform="translate(-27 -63.1)" style="fill: #727221"/>
        <path d="M279,235.21s6-69.76-30.14-102.7C261.09,169.91,259.44,233.52,279,235.21Z" transform="translate(-27 -63.1)" style="fill: #8f9126"/>
        <path d="M273.86,177.81s-3.91-26.11-25-45.3C259.55,155.08,260.14,175.85,273.86,177.81Z" transform="translate(-27 -63.1)" style="fill: #ad9d2b"/>
        <path d="M279,235.21s1.81-40.88-5.14-69.23c-5.34,8.06-14.19,28.25-10.71,46.69C266.4,226.62,271.48,234.56,279,235.21Z" transform="translate(-27 -63.1)" style="fill: #727221"/>
        <path d="M275.06,234.38s-16.4-69.32,40.16-135.94C298.54,149,307.19,215.56,275.06,234.38Z" transform="translate(-27 -63.1)" style="fill: #8f9126"/>
        <path d="M279.72,234.65s-13.44-69.15,35.5-136.21C300.52,149.15,307.36,215.57,279.72,234.65Z" transform="translate(-27 -63.1)" style="fill: #ad9d2b"/>
        <path d="M273.42,223a89.13,89.13,0,0,0,1.64,11.43c18.95,1,22.88-28.41,26.82-52.92C286.44,195.84,277.37,210.51,273.42,223Z" transform="translate(-27 -63.1)" style="fill: #727221"/>
        <path d="M267.1,233.16s-12.83,14.78,2.25,35.85c0,0,28.47-15.1,18.61-30.82C288,238.19,281.19,225,267.1,233.16Z" transform="translate(-27 -63.1)" style="fill: #727221"/>
        <path d="M306,242.91c10.81.36,17,1.77,35.35,14,0,0-13.63-30.38-40.81-28.23C283.93,232.22,301.12,242.74,306,242.91Z" transform="translate(-27 -63.1)" style="fill: #ad9d2b"/>
        <path d="M279.45,241s.35-45.32,45.09-75.17C311.87,201.75,302,235.64,279.45,241Z" transform="translate(-27 -63.1)" style="fill: #8f9126"/>
        <path d="M283.7,242.44s3.52-44.26,40.84-76.6C308.53,194.1,301.82,235.58,283.7,242.44Z" transform="translate(-27 -63.1)" style="fill: #ad9d2b"/>
        <path d="M271.77,236.19s-15.26,10.07-.18,31.14c0,0,28.47-15.1,18.61-30.82C290.2,236.51,285.86,228,271.77,236.19Z" transform="translate(-27 -63.1)" style="fill: #8f9126"/>
        <path d="M276.91,237.52s-4.44,10.92-2.78,26.79C288.7,256.84,299.62,230,276.91,237.52Z" transform="translate(-27 -63.1)" style="fill: #ad9d2b"/>
      </g>
      <g>
        <path d="M173.17,351c-11.07,3.94-62.4,114.85,64.86,76.36C245.73,417.19,236.77,328.35,173.17,351Z" transform="translate(-27 -63.1)" style="fill: #e87425"/>
        <path d="M174.85,354.18c-10.08,3.74-55.68,104.08,61.36,71.6C243.26,416.51,238,330.71,174.85,354.18Z" transform="translate(-27 -63.1)" style="fill: #f48f34"/>
        <path d="M178.32,431.41c12.08,2.85,32.75,1.95,57.54-4.92,3.8-5-7.37-32.06-6.54-52.72C193.26,426.34,180,429.17,178.32,431.41Z" transform="translate(-27 -63.1)" style="fill: #f27d2f"/>
        <path d="M172.61,352.09c-21.66,16.3-19.56,89.65,62.48,75.79C242.79,417.75,237.89,327,172.61,352.09Z" transform="translate(-27 -63.1)" style="fill: #e87425"/>
        <path d="M173.73,350.69c-21.66,16.3-22.08,83.07,64.86,76.36C246.29,416.91,239.29,327.23,173.73,350.69Z" transform="translate(-27 -63.1)" style="fill: #ffa05f"/>
        <path d="M174.61,357.47c-8.33,11.74-11.76,29.12-.84,45.08,16.41,19.73,39.31,23,61.32,21C237.61,404.65,238.87,339.55,174.61,357.47Z" transform="translate(-27 -63.1)" style="fill: #f9df9b"/>
        <path d="M177.55,361.81c-17.22,27.72,12.18,62.58,53.76,56.7C235.51,362.65,196.45,355.93,177.55,361.81Z" transform="translate(-27 -63.1)" style="fill: #ea7e34"/>
        <path d="M199.93,362.58c-2.61-.24-4.64.73,4.06,20,0,0,15-8.81,12.2-12.24C212.93,366.36,202.11,362.77,199.93,362.58Z" transform="translate(-27 -63.1)" style="fill: #f79a3e"/>
        <path d="M226.48,417.39c2.39-1.08-6.13-16.42-21.32-29.4,1.26,7.77-.52,25.83,2.31,28.14C211.47,419.38,224.48,418.29,226.48,417.39Z" transform="translate(-27 -63.1)" style="fill: #f79a3e"/>
        <path d="M181.75,399.85c.56-2.37,10.92-5.56,22.26-12.28-2.63,11.13.42,24.5-3.15,25.09C195.83,413.49,181.35,401.57,181.75,399.85Z" transform="translate(-27 -63.1)" style="fill: #f79a3e"/>
        <path d="M222.7,378.12c-1.39-2.24-4-2.24-16.38,6.61,0,0,17.6,4.24,19.53,2.31S223.85,380,222.7,378.12Z" transform="translate(-27 -63.1)" style="fill: #f79a3e"/>
        <path d="M176.71,366.46c-.47,2.59,11.79,11,25.72,17.12,0,0-10.38-21.37-13-22.05S177.55,361.81,176.71,366.46Z" transform="translate(-27 -63.1)" style="fill: #f79a3e"/>
        <path d="M174.82,374.34c3.17-1.72,8.46,4.19,30.66,11.55,0,0-23.42,8.81-27.2,7.08S172.89,375.39,174.82,374.34Z" transform="translate(-27 -63.1)" style="fill: #f79a3e"/>
        <path d="M228.58,393.24c-1.89-1.83-10.61-3.57-22.47-6,8.4,3.68,22.3,23.52,24.23,21.6S230.15,394.75,228.58,393.24Z" transform="translate(-27 -63.1)" style="fill: #f79a3e"/>
        <path d="M207.19,389.12s22.32,19.5,22.36,29.61l3,1,.63-4.83s-15.37-16.51-25.12-27.68Z" transform="translate(-27 -63.1)" style="fill: #f9df9b"/>
        <path d="M203.08,389.09s3.31,21.27-1.74,26.91l.56,2.94,3.6-1.51s-1.15-17.79-1-28.92Z" transform="translate(-27 -63.1)" style="fill: #f9df9b"/>
        <path d="M201.83,382.62s-24.05-8.05-27.21-14.93l-2.53-.42,1.32,4.32s18.24,8,28.38,12.58Z" transform="translate(-27 -63.1)" style="fill: #f9df9b"/>
        <path d="M202.05,387.38s-18.52,9.8-25.55,7l-2.88,2.16,5.57,2.23s13.4-6.57,23.9-10.26Z" transform="translate(-27 -63.1)" style="fill: #f9df9b"/>
        <path d="M207.18,387.12s20.87,1.6,23.69,6.74l2.38-.6-.89-2.7s-15.23-2.67-25.07-4.73Z" transform="translate(-27 -63.1)" style="fill: #f9df9b"/>
        <path d="M205.06,384.45s12.74-10.24,16.84-9l.6-2.92-1.83-1s-9.73,7.46-16.19,12.1Z" transform="translate(-27 -63.1)" style="fill: #f9df9b"/>
        <path d="M202.66,382s-8.65-17.56-6.1-21.41l-3.25-1.79L191,360.09s6.86,13.49,10.61,22.17Z" transform="translate(-27 -63.1)" style="fill: #f9df9b"/>
        <path d="M183.71,419.77l8.4,4.34s-17.64,5.17-6.86,8.95c0,0-9.24-1-12.88-4.06C172.37,429,195.05,425.08,183.71,419.77Z" transform="translate(-27 -63.1)" style="fill: #e87425"/>
        <polygon points="174.59 325.51 171.86 332.55 175.96 326.25 174.59 325.51" style="fill: #ea7e34"/>
        <polygon points="177.57 324.74 182.31 330.6 178.88 323.92 177.57 324.74" style="fill: #ea7e34"/>
        <polygon points="203.1 333.37 194.69 330.14 203.05 331.6 203.1 333.37" style="fill: #ea7e34"/>
        <polygon points="175.15 319.48 169.4 314.58 174 320.52 175.15 319.48" style="fill: #ea7e34"/>
        <polygon points="178.96 322.6 185.84 319.48 178.5 321.12 178.96 322.6" style="fill: #ea7e34"/>
        <polygon points="178.5 320.43 180.36 313.12 177.06 319.86 178.5 320.43" style="fill: #ea7e34"/>
        <polygon points="177.84 318.87 176.59 308.79 176.29 318.83 177.84 318.87" style="fill: #ea7e34"/>
        <polygon points="199.53 323.98 193.66 322.81 199.94 322.56 199.53 323.98" style="fill: #ea7e34"/>
        <polygon points="196.03 315.53 193.1 315.48 195.18 313.25 196.03 315.53" style="fill: #ea7e34"/>
        <polygon points="175.46 322.95 171.69 322.5 174.61 320.67 175.46 322.95" style="fill: #ea7e34"/>
        <polygon points="185.93 303.99 183.57 305.72 183.87 302.69 185.93 303.99" style="fill: #ea7e34"/>
        <polygon points="171.41 349.94 168.57 348.23 171.69 342.52 171.41 349.94" style="fill: #ea7e34"/>
        <polygon points="198.12 354.74 192.23 344.83 196.74 355.45 198.12 354.74" style="fill: #ea7e34"/>
        <polygon points="148.23 326.67 159.5 324.25 148 325.13 148.23 326.67" style="fill: #ea7e34"/>
        <polygon points="159.13 298.26 162.06 301.74 161.83 297.68 159.13 298.26" style="fill: #ea7e34"/>
        <polygon points="149.49 301.82 157.69 306.69 150.54 300.68 149.49 301.82" style="fill: #ea7e34"/>
        <polygon points="186.67 354.99 183.86 349.56 183.91 354.81 186.67 354.99" style="fill: #ea7e34"/>
        <polygon points="181.63 325.8 178.9 317.61 173.48 318.46 174.4 326.9 181.63 325.8" style="fill: #f9df9b"/>
      </g>
      <g>
        <path d="M280.55,383.34c-17.14,16-26.61,29.12-27.22,66C343,483.36,358.39,399.59,280.55,383.34Z" transform="translate(-27 -63.1)" style="fill: #6d4224"/>
        <path d="M280.46,381.74c-17.14,16-26.52,30.72-27.13,67.58C338.53,475.62,358.3,398,280.46,381.74Z" transform="translate(-27 -63.1)" style="fill: #895430"/>
        <path d="M284.91,387.6c8.14,9.4-2.43,29.43-15,50.61C328.47,458.09,357.18,414.13,284.91,387.6Z" transform="translate(-27 -63.1)" style="fill: #ad6b3e"/>
        <path d="M281.54,386.7c-16.16,14-24.83,29-24.58,60.95C287.05,453.93,318.26,394.25,281.54,386.7Z" transform="translate(-27 -63.1)" style="fill: #cccc32"/>
        <path d="M274,405.72c-5.79,7.57-11.55,23.21-2.77,25C278,421.66,282.77,407.56,274,405.72Z" transform="translate(-27 -63.1)" style="fill: #992"/>
        <polygon points="250.07 345.93 259.61 329.67 251.06 348.17 250.07 345.93" style="fill: #992"/>
        <polygon points="247.74 360.58 256.67 372.5 245.31 360.83 247.74 360.58" style="fill: #992"/>
        <polygon points="243.44 359.16 233.61 357.95 244.06 356.97 243.44 359.16" style="fill: #992"/>
        <polygon points="250.79 348.57 266.46 341.15 250.6 350.26 250.79 348.57" style="fill: #992"/>
        <polygon points="242.51 352.44 238.02 345.84 244.21 352.32 242.51 352.44" style="fill: #992"/>
        <polygon points="246.68 343.74 248.69 331.8 247.92 344.89 246.68 343.74" style="fill: #992"/>
        <polygon points="250.34 355.76 265.06 359.49 249.67 356.84 250.34 355.76" style="fill: #992"/>
        <polygon points="244.6 365.54 241.27 381.05 243.43 365.33 244.6 365.54" style="fill: #992"/>
        <polygon points="242.55 365.25 238.33 372.38 242.01 364.95 242.55 365.25" style="fill: #992"/>
        <polygon points="241.82 363.13 233.29 370.82 241.06 362.22 241.82 363.13" style="fill: #992"/>
        <path d="M273.65,409.17c-4.2,5.48-8.38,16.83-2,18.16C276.58,420.73,280,410.5,273.65,409.17Z" transform="translate(-27 -63.1)" style="fill: #eaea49"/>
        <path d="M285,415.7a1.57,1.57,0,0,0-1.75-.33c-1,.35-1.14.46-1.34,1.24-.15.57.4,1,1.36.67A2.88,2.88,0,0,0,285,415.7Z" transform="translate(-27 -63.1)" style="fill: #895430"/>
        <path d="M284.32,425.46a1.56,1.56,0,0,0-.84-1.57c-.88-.52-1.08-.59-1.81-.26-.54.25-.54,1,.34,1.49A2.88,2.88,0,0,0,284.32,425.46Z" transform="translate(-27 -63.1)" style="fill: #895430"/>
        <path d="M267.21,434.49a2,2,0,0,0,1.27-1.2c.41-.92.46-1.11.18-1.63s-.79-.17-1.21.74A2.91,2.91,0,0,0,267.21,434.49Z" transform="translate(-27 -63.1)" style="fill: #895430"/>
        <path d="M260.33,440.62a2,2,0,0,0,1.26-1.21c.42-.91.47-1.11.19-1.63s-.8-.17-1.21.74A2.83,2.83,0,0,0,260.33,440.62Z" transform="translate(-27 -63.1)" style="fill: #895430"/>
        <path d="M266,442.85a2,2,0,0,0,1-1.43c.23-1,.24-1.18-.15-1.64s-.81,0-1,1A2.82,2.82,0,0,0,266,442.85Z" transform="translate(-27 -63.1)" style="fill: #895430"/>
        <path d="M261.77,428.94a2,2,0,0,0,1.68-.47c.8-.62.93-.77.92-1.36s-.62-.52-1.41.09A2.93,2.93,0,0,0,261.77,428.94Z" transform="translate(-27 -63.1)" style="fill: #895430"/>
        <path d="M260.28,423.55a1.23,1.23,0,0,0,1.11.41c.67-.06.8-.09,1-.46s-.14-.58-.81-.53A1.89,1.89,0,0,0,260.28,423.55Z" transform="translate(-27 -63.1)" style="fill: #895430"/>
        <path d="M266.28,413.51a1.19,1.19,0,0,0,.32,1.13c.43.52.54.6,1,.57s.39-.45,0-1A1.89,1.89,0,0,0,266.28,413.51Z" transform="translate(-27 -63.1)" style="fill: #895430"/>
        <path d="M273,399.41a1.21,1.21,0,0,0-.56,1c0,.68,0,.81.31,1.09s.59,0,.64-.72A1.88,1.88,0,0,0,273,399.41Z" transform="translate(-27 -63.1)" style="fill: #895430"/>
        <path d="M269.13,407.79a1.21,1.21,0,0,0-.08,1.18c.24.63.32.75.74.86s.52-.3.27-.93A1.91,1.91,0,0,0,269.13,407.79Z" transform="translate(-27 -63.1)" style="fill: #895430"/>
        <path d="M263.21,417.64a1.22,1.22,0,0,0,.9.75c.66.18.79.19,1.13-.09s.07-.59-.58-.77A1.92,1.92,0,0,0,263.21,417.64Z" transform="translate(-27 -63.1)" style="fill: #895430"/>
        <path d="M287.74,411.61a1.55,1.55,0,0,0-1.75-.33c-1,.35-1.13.46-1.34,1.23-.15.58.4,1,1.36.68A2.88,2.88,0,0,0,287.74,411.61Z" transform="translate(-27 -63.1)" style="fill: #895430"/>
        <path d="M283.88,411.42a1.82,1.82,0,0,0-1.55-.16c-.86.23-1,.31-1.22.79s.34.63,1.2.39A2.59,2.59,0,0,0,283.88,411.42Z" transform="translate(-27 -63.1)" style="fill: #895430"/>
        <path d="M287.56,419.35a1.75,1.75,0,0,0-1.36-.76c-.88-.12-1.06-.11-1.42.26s.06.71,1,.82A2.54,2.54,0,0,0,287.56,419.35Z" transform="translate(-27 -63.1)" style="fill: #895430"/>
        <path d="M269.3,402.71a1.8,1.8,0,0,0,.28,1.53c.47.76.59.89,1.11.94s.5-.5,0-1.26A2.6,2.6,0,0,0,269.3,402.71Z" transform="translate(-27 -63.1)" style="fill: #895430"/>
        <path d="M276.58,430.13a1.75,1.75,0,0,0-.41-1.5c-.53-.72-.66-.84-1.18-.84s-.46.54.08,1.25A2.57,2.57,0,0,0,276.58,430.13Z" transform="translate(-27 -63.1)" style="fill: #895430"/>
        <path d="M279.53,425.82a1.82,1.82,0,0,0-.41-1.5c-.54-.71-.67-.83-1.19-.84s-.46.55.08,1.26A2.53,2.53,0,0,0,279.53,425.82Z" transform="translate(-27 -63.1)" style="fill: #895430"/>
        <path d="M272.66,441.61a1.76,1.76,0,0,0,.69-1.39c.06-.89,0-1.07-.34-1.41s-.7.1-.77,1A2.54,2.54,0,0,0,272.66,441.61Z" transform="translate(-27 -63.1)" style="fill: #895430"/>
        <path d="M275.17,436.05a1.81,1.81,0,0,0,.2-1.55c-.22-.86-.29-1-.77-1.23s-.63.33-.41,1.19A2.61,2.61,0,0,0,275.17,436.05Z" transform="translate(-27 -63.1)" style="fill: #895430"/>
        <path d="M286.08,405.68a1.76,1.76,0,0,0-1.55.17c-.79.41-.93.52-1,1s.46.54,1.25.13A2.61,2.61,0,0,0,286.08,405.68Z" transform="translate(-27 -63.1)" style="fill: #895430"/>
        <path d="M286,400.88a1.78,1.78,0,0,0-1.39.69c-.6.66-.7.81-.6,1.32s.62.35,1.22-.31A2.58,2.58,0,0,0,286,400.88Z" transform="translate(-27 -63.1)" style="fill: #895430"/>
        <path d="M279.53,392.44a1.8,1.8,0,0,0-1,1.21c-.27.85-.29,1,0,1.45s.71.06,1-.79A2.6,2.6,0,0,0,279.53,392.44Z" transform="translate(-27 -63.1)" style="fill: #895430"/>
        <path d="M279.43,402.67a1.75,1.75,0,0,0-1.2,1c-.43.78-.49,1-.28,1.43s.68.19,1.11-.59A2.53,2.53,0,0,0,279.43,402.67Z" transform="translate(-27 -63.1)" style="fill: #895430"/>
      </g>
      <g>
        <path d="M333.75,350.9C308.05,444.63,382.44,474.24,466,451.8l.52-10.18C407.14,415.54,371.44,436,367.15,358l-.88-39.08-11-2.8Z" transform="translate(-27 -63.1)" style="fill: #ce9525"/>
        <path d="M336.28,346.81C310.58,440.55,382.13,470,465.73,447.53l3.36-10C409.67,411.46,374,432,369.68,353.89l-.88-39.08L355.67,310Z" transform="translate(-27 -63.1)" style="fill: #e8c531"/>
        <path d="M454.76,448.2l1.66-8.81,10.84.45.34-1c-59.43-26.07-95.12-5.59-99.42-83.64l-.88-39.08L358.86,313l-1-.07C335.82,404,362.38,442.19,454.76,448.2Z" transform="translate(-27 -63.1)" style="fill: #ce9525"/>
        <path d="M452.41,444.1l5.22-6,10.84.45.34-1c-59.42-26.07-95.12-5.58-99.41-83.64l-.6-39.06-8.72-3.14-1-.07C340.89,407.57,356.15,441.91,452.41,444.1Z" transform="translate(-27 -63.1)" style="fill: #f2d766"/>
        <path d="M363,274.12c1.82,10.14.12,18.5-7.49,36.51l12.73,4.15c-.75-14.1,2.1-25.07,5.59-37.08Z" transform="translate(-27 -63.1)" style="fill: #ce9525"/>
        <path d="M366.68,273.4c1.82,10.14,1.42,20.84-6.2,38.86l8.34,3.81c-.75-14.1,1.5-26.36,5-38.37Z" transform="translate(-27 -63.1)" style="fill: #f2d766"/>
        <polygon points="330.95 245.07 327.65 271.2 335.85 243.18 330.95 245.07" style="fill: #ce9525"/>
        <polygon points="425.75 380.18 430.13 390.89 439.04 388.7 442.29 381.35 442.09 374.43 431.5 373.22 425.75 380.18" style="fill: #9e6c23"/>
        <polygon points="348.25 204.17 333.61 204.82 336.63 219.09 344.66 222.67 352.75 212.07 348.25 204.17" style="fill: #e8c531"/>
        <polygon points="329.77 254.39 335.27 228.52 324.13 255.48 329.77 254.39" style="fill: #e8c531"/>
        <polygon points="342.96 211.59 352.75 212.07 348.25 204.17 333.61 204.82 342.96 211.59" style="fill: #f2d766"/>
        <polygon points="342.96 211.59 340.57 220.85 336.63 219.09 342.96 211.59" style="fill: #ce9525"/>
        <polygon points="340.57 220.85 333.61 204.82 336.44 222.06 340.57 220.85" style="fill: #ce9525"/>
      </g>
      <g>
        <path d="M419.24,363.24s3-20.43,15.73-18l0-3.08-4.24-1.8S416.89,347.67,419.24,363.24Z" transform="translate(-27 -63.1)" style="fill: #965d36"/>
        <path d="M448.12,352.55c-4.49-3.79-9.1-3.41-13.87.07-13.05,9.48-18.73,9.91-29.83,3.67-8.82-5-20.16.15-19.63,11.54,1.62,34.65,15.12,53.95,32.67,47.72a10.61,10.61,0,0,1,5.18-.48C449.68,419.24,458.56,361.36,448.12,352.55Z" transform="translate(-27 -63.1)" style="fill: #a53728"/>
        <path d="M448.12,352.55c-4.49-3.79-9.38-3.76-13.87.07-14.67,12.49-18.73,9.91-29.83,3.67-8.82-5-20.16.15-19.63,11.54,1.62,34.65,13.73,53.07,31.28,46.84a10.63,10.63,0,0,1,9.86-1.27C453,417.57,458.56,361.36,448.12,352.55Z" transform="translate(-27 -63.1)" style="fill: #d84a32"/>
        <path d="M430.15,360.4c-2.27,1.58-6,1.57-8.6,1.19-19.17-2.77-21.15-.32-19.31,18.73,4.26,24,15.88,32.72,32.09,27.59,4.74-1.5,10.29-9.74,11.47-15.44C454.56,350.08,449.29,347,430.15,360.4Z" transform="translate(-27 -63.1)" style="fill: #ed533e"/>
        <path d="M389,335.09c16.29,15.07,17.39,27,31.95,16.66C421.52,341.28,397.13,326,389,335.09Z" transform="translate(-27 -63.1)" style="fill: #a6af31"/>
        <path d="M390.55,333.61c16.29,15.08,16.16,26.66,30.72,16.37C421.83,339.51,408.71,325.39,390.55,333.61Z" transform="translate(-27 -63.1)" style="fill: #cace32"/>
        <path d="M448.3,358.9c-1.44-3.44-8.1-5.3-12.52-.15-13.63,15.89-32.9-6.17-24.61,19.16,4.36,13.3,25.27,8.3,30.76,4.93S449.73,362.35,448.3,358.9Z" transform="translate(-27 -63.1)" style="fill: #ff6555"/>
        <path d="M443.18,366.86c2.29-2.46,2.7-5.8.92-7.46s-5.09-1-7.38,1.46-2.7,5.8-.91,7.46S440.89,369.33,443.18,366.86Z" transform="translate(-27 -63.1)" style="fill: #ffabab"/>
        <path d="M445.07,356.58c1.24.46,2.52.11,2.86-.79s-.4-2-1.64-2.47-2.53-.11-2.86.79S443.83,356.11,445.07,356.58Z" transform="translate(-27 -63.1)" style="fill: #ffabab"/>
        <path d="M400.34,396.47c-4-7.22-6.62-25.24-10.13-24-6.62,2.29,4.58,42.77,21.06,41.66C423.15,413.3,408.93,412.14,400.34,396.47Z" transform="translate(-27 -63.1)" style="fill: #ed533e"/>
        <path d="M409.78,341.8s10.08,4,10.06,10.71l1.12-.76S423.68,343.9,409.78,341.8Z" transform="translate(-27 -63.1)" style="fill: #a6af31"/>
      </g>
      <path d="M449.14,398.79c4.62-11.56,6.6-16.62-.84-19.6s-25.34,8.05-34.58,16.38c-29.82,26.88,4.83,21.21,6.63,19.24C427.8,417.8,444.51,410.35,449.14,398.79Z" transform="translate(-27 -63.1)" style="fill: #973f00;opacity: 0.4;mix-blend-mode: multiply"/>
      <g>
        <path d="M482.05,356.14c-5.72-1.35-9.65,1.08-12.35,6.33-7.35,14.36-2.63,16.64-15.35,16.09-10.12-.44-27.51,9.92-21.89,19.83,17.1,30.19,37.87,41.3,50.71,27.81a10.61,10.61,0,0,1,4.4-2.77C513.57,414.94,495.35,359.29,482.05,356.14Z" transform="translate(-27 -63.1)" style="fill: #a53728"/>
        <path d="M482.05,356.14c-5.72-1.35-13,2.21-16.11,7.25-4.62,7.56-2.63,11.58-15.35,11-10.11-.44-23.75,14.06-18.13,24,17.1,30.19,36.23,41.14,49.07,27.65a10.62,10.62,0,0,1,8.22-5.58C515.76,412,495.35,359.29,482.05,356.14Z" transform="translate(-27 -63.1)" style="fill: #d84a32"/>
        <path d="M469.57,371.27c-1.31,2.44-4.67,4.12-7.14,5-18.35,6.18-19,9.27-8.76,25.43,14.64,19.47,28.95,22,41.09,10.12,3.55-3.49,4.78-13.35,3.26-19C486.68,351,480.59,350.67,469.57,371.27Z" transform="translate(-27 -63.1)" style="fill: #ed533e"/>
        <path d="M485.08,361.73c-2.84-2.42-9.63-1.07-11.24,5.53-5,20.33-32.14,9.36-13.29,28.2,9.89,9.9,26.29-4,29.66-9.49S487.91,364.16,485.08,361.73Z" transform="translate(-27 -63.1)" style="fill: #ff6555"/>
        <path d="M484.11,371.15c.93-3.23-.21-6.4-2.55-7.07s-5,1.4-5.92,4.63.21,6.4,2.55,7.07S483.18,374.38,484.11,371.15Z" transform="translate(-27 -63.1)" style="fill: #ffabab"/>
        <path d="M481.15,361.12c1.31-.15,2.3-1,2.19-2s-1.26-1.61-2.58-1.46-2.3,1-2.19,2S479.83,361.27,481.15,361.12Z" transform="translate(-27 -63.1)" style="fill: #ffabab"/>
        <path d="M459.27,416.92c-6.8-4.65-17.31-19.53-19.89-16.86-4.87,5,23.41,36.08,37.61,27.64C487.22,421.62,474,427,459.27,416.92Z" transform="translate(-27 -63.1)" style="fill: #ed533e"/>
        <path d="M485,357.16c-4.65-2.1-8.88-.35-10.69,4.61-5.92,16.2-9.81,15.08-20.14,12.8-8.22-1.82-14.49,6.49-9.86,16.88,14.1,31.62,29.71,44.87,40,33.57a7.14,7.14,0,0,1,6.64-4.28C516,410.21,495.86,362,485,357.16Z" transform="translate(-27 -63.1)" style="fill: #ffe69f"/>
        <path d="M464,374.9s-8.3-13-18.63-13.49l-.41-1.89S457,361,464,374.9Z" transform="translate(-27 -63.1)" style="fill: #965d36"/>
        <path d="M480.89,376.6c-10,4.93-1.24,28.26,8,31.54C497.54,398.8,491.36,373.93,480.89,376.6Z" transform="translate(-27 -63.1)" style="fill: #efce7b"/>
        <path d="M463.9,387.08c10.75-5.71,24,15.46,20.45,25.32C470.93,414.34,454.7,394.51,463.9,387.08Z" transform="translate(-27 -63.1)" style="fill: #efce7b"/>
        <path d="M476.9,401.22c-1.25,2.17-5.87-.08-6.34-2.18C472.69,397.23,477.69,398.92,476.9,401.22Z" transform="translate(-27 -63.1)" style="fill: #965d36"/>
        <path d="M474.23,396c-1.65,1.3-4.54-1.87-4.25-3.65C472.19,391.59,475.55,394.45,474.23,396Z" transform="translate(-27 -63.1)" style="fill: #965d36"/>
        <path d="M485.33,393.66c-2.1-.06-2.27-4.35-.9-5.53C486.6,389,487.33,393.33,485.33,393.66Z" transform="translate(-27 -63.1)" style="fill: #965d36"/>
        <path d="M438.79,388.42c.85-2.44.57-4.76-.63-5.19s-2.88,1.22-3.73,3.67-.58,4.76.62,5.19S437.93,390.87,438.79,388.42Z" transform="translate(-27 -63.1)" style="fill: #ff6555"/>
      </g>
      <g style="clip-path: url(#clip-path)">
        <g>
          <path d="M258.53,453.11c-21-10.29-36.72-14.42-71.35-1.8C187.49,547.23,271.21,531.61,258.53,453.11Z" transform="translate(-27 -63.1)" style="fill: #6d4224"/>
          <path d="M260,452.45c-21-10.28-38.18-13.76-72.81-1.14C193.11,540.28,272.67,531,260,452.45Z" transform="translate(-27 -63.1)" style="fill: #895430"/>
          <path d="M256.11,458.71c-5.86,11-28.34,8.26-52.62,4.13C205.88,524.61,257.2,535.68,256.11,458.71Z" transform="translate(-27 -63.1)" style="fill: #ad6b3e"/>
          <path d="M255.75,455.24c-18.82-10.09-36-12.81-65.71-1.14C194.94,484.44,261.84,492.23,255.75,455.24Z" transform="translate(-27 -63.1)" style="fill: #cccc32"/>
          <path d="M235.28,455c-9.13-2.7-25.8-2.48-24.37,6.38C221.85,464.48,236.71,463.86,235.28,455Z" transform="translate(-27 -63.1)" style="fill: #992"/>
          <polygon points="206.3 395.96 224.89 399.04 204.56 397.68 206.3 395.96" style="fill: #992"/>
          <polygon points="191.78 399.03 183.84 411.63 190.67 396.84 191.78 399.03" style="fill: #992"/>
          <polygon points="191.57 394.5 189.18 384.89 193.84 394.29 191.57 394.5" style="fill: #992"/>
          <polygon points="204.09 397.57 216.63 409.55 202.44 398 204.09 397.57" style="fill: #992"/>
          <polygon points="197.51 391.23 202.07 384.67 198.23 392.77 197.51 391.23" style="fill: #992"/>
          <polygon points="207.13 392 218.99 389.61 206.49 393.58 207.13 392" style="fill: #992"/>
          <polygon points="197.21 399.73 199 414.81 195.97 399.49 197.21 399.73" style="fill: #992"/>
          <polygon points="186.03 397.87 170.35 400.3 185.8 396.7 186.03 397.87" style="fill: #992"/>
          <polygon points="185.56 395.85 177.4 394.46 185.65 395.24 185.56 395.85" style="fill: #992"/>
          <polygon points="187.29 394.41 177.04 389.19 187.86 393.37 187.29 394.41" style="fill: #992"/>
          <path d="M231.94,455.91c-6.62-2-18.71-1.8-17.68,4.63C222.2,462.79,233,462.34,231.94,455.91Z" transform="translate(-27 -63.1)" style="fill: #eaea49"/>
          <path d="M229.92,468.87a1.58,1.58,0,0,0-.32-1.76c-.67-.77-.84-.89-1.64-.8-.59.06-.81.74-.14,1.51A2.9,2.9,0,0,0,229.92,468.87Z" transform="translate(-27 -63.1)" style="fill: #895430"/>
          <path d="M220.55,471.71a1.55,1.55,0,0,0,1.16-1.35c.18-1,.17-1.22-.4-1.78s-1.09-.16-1.27.84A2.9,2.9,0,0,0,220.55,471.71Z" transform="translate(-27 -63.1)" style="fill: #895430"/>
          <path d="M206,459a2,2,0,0,0,1.58.75c1,.06,1.2,0,1.59-.42s-.13-.8-1.13-.86A2.82,2.82,0,0,0,206,459Z" transform="translate(-27 -63.1)" style="fill: #895430"/>
          <path d="M197.81,454.73a2,2,0,0,0,1.58.75c1,.06,1.2,0,1.59-.41s-.13-.81-1.13-.87A2.87,2.87,0,0,0,197.81,454.73Z" transform="translate(-27 -63.1)" style="fill: #895430"/>
          <path d="M197.74,460.79a2,2,0,0,0,1.7.42c1-.14,1.18-.2,1.47-.72s-.28-.76-1.28-.62A2.87,2.87,0,0,0,197.74,460.79Z" transform="translate(-27 -63.1)" style="fill: #895430"/>
          <path d="M209.23,451.9a2,2,0,0,0,1,1.4c.86.52,1,.59,1.6.37s.26-.76-.59-1.28A2.89,2.89,0,0,0,209.23,451.9Z" transform="translate(-27 -63.1)" style="fill: #895430"/>
          <path d="M213.73,448.58a1.22,1.22,0,0,0,0,1.18c.29.61.37.72.79.8s.5-.34.21-.95A1.91,1.91,0,0,0,213.73,448.58Z" transform="translate(-27 -63.1)" style="fill: #895430"/>
          <path d="M225.25,450.58a1.22,1.22,0,0,0-.94.71c-.33.59-.37.72-.19,1.11s.57.21.89-.38A1.87,1.87,0,0,0,225.25,450.58Z" transform="translate(-27 -63.1)" style="fill: #895430"/>
          <path d="M240.83,451.82a1.21,1.21,0,0,0-1.17-.15c-.64.2-.76.27-.9.68s.26.54.9.34A1.9,1.9,0,0,0,240.83,451.82Z" transform="translate(-27 -63.1)" style="fill: #895430"/>
          <path d="M231.61,451.2a1.23,1.23,0,0,0-1.13.35c-.5.45-.58.56-.54,1s.47.38,1-.07A1.91,1.91,0,0,0,231.61,451.2Z" transform="translate(-27 -63.1)" style="fill: #895430"/>
          <path d="M220.3,449.19a1.23,1.23,0,0,0-.38,1.12c.07.67.11.8.48,1s.58-.15.51-.82A1.89,1.89,0,0,0,220.3,449.19Z" transform="translate(-27 -63.1)" style="fill: #895430"/>
          <path d="M234.71,470a1.58,1.58,0,0,0-.32-1.76c-.67-.77-.84-.89-1.63-.81-.6.07-.82.75-.15,1.52A2.91,2.91,0,0,0,234.71,470Z" transform="translate(-27 -63.1)" style="fill: #895430"/>
          <path d="M233.5,466.27a1.8,1.8,0,0,0-.4-1.51c-.53-.71-.65-.84-1.17-.85s-.47.54.06,1.26A2.56,2.56,0,0,0,233.5,466.27Z" transform="translate(-27 -63.1)" style="fill: #895430"/>
          <path d="M227.42,472.55a1.76,1.76,0,0,0,.22-1.54c-.21-.87-.28-1-.75-1.24s-.64.31-.43,1.18A2.51,2.51,0,0,0,227.42,472.55Z" transform="translate(-27 -63.1)" style="fill: #895430"/>
          <path d="M236.41,449.54a1.76,1.76,0,0,0-1.32.81c-.54.71-.62.87-.48,1.37s.65.29,1.18-.42A2.54,2.54,0,0,0,236.41,449.54Z" transform="translate(-27 -63.1)" style="fill: #895430"/>
          <path d="M213.42,466.16a1.81,1.81,0,0,0,1.26-.92c.47-.76.54-.92.36-1.41s-.67-.23-1.15.52A2.59,2.59,0,0,0,213.42,466.16Z" transform="translate(-27 -63.1)" style="fill: #895430"/>
          <path d="M218.49,467.36a1.73,1.73,0,0,0,1.26-.92c.47-.75.54-.92.36-1.4s-.67-.24-1.15.52A2.63,2.63,0,0,0,218.49,467.36Z" transform="translate(-27 -63.1)" style="fill: #895430"/>
          <path d="M201.29,466.61a1.78,1.78,0,0,0,1.55.13c.86-.25,1-.33,1.2-.82s-.35-.62-1.2-.36A2.52,2.52,0,0,0,201.29,466.61Z" transform="translate(-27 -63.1)" style="fill: #895430"/>
          <path d="M207.39,467a1.77,1.77,0,0,0,1.51-.36c.73-.51.86-.64.88-1.16s-.53-.47-1.26,0A2.56,2.56,0,0,0,207.39,467Z" transform="translate(-27 -63.1)" style="fill: #895430"/>
          <path d="M239.65,466.27a1.78,1.78,0,0,0-.71-1.38c-.67-.59-.82-.68-1.33-.58s-.34.63.33,1.21A2.53,2.53,0,0,0,239.65,466.27Z" transform="translate(-27 -63.1)" style="fill: #895430"/>
          <path d="M244.11,464.51a1.8,1.8,0,0,0-1.14-1.06c-.83-.32-1-.35-1.45-.08s-.1.7.73,1A2.52,2.52,0,0,0,244.11,464.51Z" transform="translate(-27 -63.1)" style="fill: #895430"/>
          <path d="M249.66,455.42a1.74,1.74,0,0,0-1.48-.48c-.89.05-1.06.09-1.35.52s.2.69,1.09.63A2.55,2.55,0,0,0,249.66,455.42Z" transform="translate(-27 -63.1)" style="fill: #895430"/>
          <path d="M240.08,459a1.78,1.78,0,0,0-1.35-.76c-.88-.13-1.06-.12-1.43.24s.06.71.95.84A2.54,2.54,0,0,0,240.08,459Z" transform="translate(-27 -63.1)" style="fill: #895430"/>
        </g>
      </g>
      <path d="M568,418.67,583,377l-24.29-.82c3-2.8,12.67-13.21,4.06-23.11-6.53-7.51-15.9-4.69-21.77.08l23.08-290L314.81,99.87c.14-.48.27-1,.4-1.42h0c-.45.52-.87,1-1.3,1.56l-31.53,4.65c-.55-10.58-.78-21.07-.37-31.2A256.43,256.43,0,0,0,273.47,106L254,108.84c-.88-1.52-1.77-3-2.69-4.57q.75,2.36,1.47,4.75L39.9,140.42,75.51,339.66c-10,12.18.82,36,.82,36S61,362.84,54.73,371.52c-3.11,4.28-5.74,9.09-10.31,12L27,384l65.74,54.23c3.08,7.89,10.25,17,21.34,26.24,17.93,17.29,49,35.35,93.18,46.27,8.32,7,18.08,8.56,26.92,5.46A396.32,396.32,0,0,0,297,521c133.65,0,269.81-67.08,269.81-95.52a7.67,7.67,0,0,0-.16-1.51A12.74,12.74,0,0,0,568,418.67Z" transform="translate(-27 -63.1)" style="opacity: 0.4;mix-blend-mode: overlay;fill: url(#linear-gradient)"/>
    </g>
  </g>
</svg>
